<svg width="111" height="60" fill="none" xmlns="http://www.w3.org/2000/svg"><g filter="url(#filter0_d_3_23)"><g filter="url(#filter1_i_3_23)"><path d="M18.947 8.776c-2.584 0-4.095-.236-6.3 0-1.583.169-2.89.39-4.095 1.178-1.534 1.002-1.515 2.101-2.205 3.534-.315.654-.81 3.899-.945 5.89L5.087 29.51c.197 2.342.63 5.42.63 5.42s1.496.692 1.89.47c1.26-.706.945-7.54.945-8.01 0-.472.945-7.305.945-7.305s.197-3.218.945-5.183c.544-1.43.945-3.063 1.89-3.535.41-.204 1.575-.368 1.575 0 0 .472-2.021 3.531-2.52 5.89-.673 3.182 0 8.248 0 8.248l.945 8.01-.315 8.719v4.712s-1.033 2.726.63 3.535c1.56.758 4.635.622 6.3 0 .63-.236-1.333-3.535-1.333-3.535l1.333-4.005 2.132-6.598s1.89-4.24 3.465-3.534l2.278 8.718 4.41 6.597 1.26 2.357s4.597.772 5.67-.236c.501-.471-3.15-3.299-3.15-3.299l-1.26-4.005v-4.713l1.26-5.419 3.15-1.178s2.312-.117 3.78 0c2.285.181 5.283.471 6.228.471.945 0 4.725-.707 5.67 0 .945.707 1.017 6.833 1.017 6.833l-1.017 6.833s-1.702 4.064-.873 4.477c.945.471 6.858.85 6.858 0V39.878s3.537-8.718 4.482-7.776c.945.943.558 8.247.558 8.247l-.558 5.655s.066 3.155 2.205 4.005c1.63.648 4.41.472 5.04.236 1.26-.471-2.205-4.241-2.205-4.241l.315-7.776 2.835-6.126 4.41-5.42 3.15-2.827s1.985-2.686 4.095-3.77c1.413-.725 2.448-.824 4.095-1.178 5.203-1.117 12.6.236 13.86 0 1.26-.235 1.933-.43 2.52-1.178.503-.64.459-1.15.315-1.885-.207-1.062-1.89-2.356-1.89-2.356l-3.78-3.534-3.15-1.885s-5.67-2.592-5.67-3.063c0-.472 2.993-.943 2.993-.943l2.992-.942c1.725-.555 3.088-.896 2.835-1.179-.63-.706-6.3-.942-6.3-.942h-3.78l-2.52.471L83.207 4.3s-2.52-2.357-3.465-2.357c-.945 0 0 4.242 0 4.242s.461.243.63.47c.299.403.315.881 0 1.179-.315.298-2.112-.032-3.465 0-3.965.094-10.08.943-10.08.943h-47.88z" fill="#000"/></g><path d="M18.947 8.776c-2.584 0-4.095-.236-6.3 0-1.583.169-2.89.39-4.095 1.178-1.534 1.002-1.515 2.101-2.205 3.534-.315.654-.81 3.899-.945 5.89M18.947 8.776h7.875m-7.875 0h7.875m0 0h40.005s6.115-.85 10.08-.943c1.353-.032 3.15.298 3.465 0 .315-.298.299-.776 0-1.178-.169-.228-.63-.471-.63-.471s-.945-4.242 0-4.242S83.207 4.3 83.207 4.3l3.465-2.828L89.192 1h3.78s5.67.236 6.3.942c.253.283-1.11.624-2.835 1.179l-2.992.942s-2.993.471-2.993.943c0 .47 5.67 3.063 5.67 3.063l3.15 1.885 3.78 3.534s1.683 1.294 1.89 2.356c.144.734.188 1.246-.315 1.885-.587.749-1.26.943-2.52 1.178-1.26.236-8.657-1.117-13.86 0-1.647.354-2.682.453-4.095 1.178-2.11 1.084-4.095 3.77-4.095 3.77l-3.15 2.828-4.41 5.42-2.835 6.125-.315 7.776s3.465 3.77 2.205 4.241c-.63.236-3.41.412-5.04-.236-2.14-.85-2.205-4.005-2.205-4.005l.558-5.655s.387-7.304-.558-8.247c-.945-.942-4.482 7.776-4.482 7.776v10.367c0 .85-5.913.471-6.858 0-.829-.413.873-4.477.873-4.477l1.017-6.833s-.072-6.126-1.017-6.833c-.945-.707-4.725 0-5.67 0-.945 0-3.943-.29-6.228-.471-1.468-.117-3.78 0-3.78 0l-3.15 1.178-1.26 5.42v4.712l1.26 4.005s3.651 2.828 3.15 3.299c-1.073 1.008-5.67.236-5.67.236l-1.26-2.357-4.41-6.597-2.278-8.718c-1.575-.707-3.465 3.534-3.465 3.534l-2.132 6.598-1.333 4.005s1.963 3.299 1.333 3.535c-1.665.622-4.74.758-6.3 0-1.663-.809-.63-3.535-.63-3.535v-4.712l.315-8.718-.945-8.011s-.673-5.066 0-8.247c.499-2.36 2.52-5.42 2.52-5.89 0-.369-1.166-.205-1.575 0-.945.47-1.346 2.104-1.89 3.534-.748 1.965-.945 5.183-.945 5.183s-.945 6.833-.945 7.305c0 .47.315 7.304-.945 8.01-.394.222-1.89-.47-1.89-.47s-.433-3.078-.63-5.42m0 0c-.163-1.93.139-4.477.139-4.477s-.016-2.856.176-5.655M5.087 29.51l.315-10.132" stroke="#000" stroke-width="2"/><g filter="url(#filter2_i_3_23)"><path d="M23.009 12.074h-4.135v10.603h4.135v-3.534h4.134v3.534h4.135V12.074h-4.135v3.976H23.01v-3.976zm16.537-.884h-4.725l-3.543 11.045h2.953l.59-2.209h4.725l1.182 2.21h2.953L39.546 11.19z" fill="#fff" stroke="#000"/><path d="M38.365 13.4h-1.772l-1.181 4.417h3.544l-.59-4.417z" fill="#000" stroke="#000"/><path d="M60.81 11.19h-4.726L52.54 22.236h2.953l.591-2.209h4.725l1.181 2.21h2.953L60.81 11.19z" fill="#fff" stroke="#000"/><path d="M59.628 13.4h-1.772l-1.181 4.417h3.543l-.59-4.417z" fill="#000" stroke="#000"/><path d="M44.271 22.235l.591-11.044h3.544v8.835h5.906v2.21h-10.04zm21.263 0l.59-11.044h3.544v8.835h5.907v2.21h-10.04z" fill="#fff" stroke="#0D0D0D"/></g></g><defs><filter id="filter0_d_3_23" x=".038" y="0" width="110" height="60" filterUnits="userSpaceOnUse" color-interpolation-filters="sRGB"><feFlood flood-opacity="0" result="BackgroundImageFix"/><feColorMatrix in="SourceAlpha" values="0 0 0 0 0 0 0 0 0 0 0 0 0 0 0 0 0 0 127 0" result="hardAlpha"/><feOffset dy="4"/><feGaussianBlur stdDeviation="2"/><feComposite in2="hardAlpha" operator="out"/><feColorMatrix values="0 0 0 0 0 0 0 0 0 0 0 0 0 0 0 0 0 0 0.25 0"/><feBlend in2="BackgroundImageFix" result="effect1_dropShadow_3_23"/><feBlend in="SourceGraphic" in2="effect1_dropShadow_3_23" result="shape"/></filter><filter id="filter1_i_3_23" x="4.038" y="0" width="102" height="52" filterUnits="userSpaceOnUse" color-interpolation-filters="sRGB"><feFlood flood-opacity="0" result="BackgroundImageFix"/><feBlend in="SourceGraphic" in2="BackgroundImageFix" result="shape"/><feColorMatrix in="SourceAlpha" values="0 0 0 0 0 0 0 0 0 0 0 0 0 0 0 0 0 0 127 0" result="hardAlpha"/><feOffset/><feGaussianBlur stdDeviation="2"/><feComposite in2="hardAlpha" operator="arithmetic" k2="-1" k3="1"/><feColorMatrix values="0 0 0 0 1 0 0 0 0 1 0 0 0 0 1 0 0 0 1 0"/><feBlend in2="shape" result="effect1_innerShadow_3_23"/></filter><filter id="filter2_i_3_23" x="18.374" y="10.691" width="57.7" height="16.487" filterUnits="userSpaceOnUse" color-interpolation-filters="sRGB"><feFlood flood-opacity="0" result="BackgroundImageFix"/><feBlend in="SourceGraphic" in2="BackgroundImageFix" result="shape"/><feColorMatrix in="SourceAlpha" values="0 0 0 0 0 0 0 0 0 0 0 0 0 0 0 0 0 0 127 0" result="hardAlpha"/><feOffset dy="4"/><feGaussianBlur stdDeviation="2"/><feComposite in2="hardAlpha" operator="arithmetic" k2="-1" k3="1"/><feColorMatrix values="0 0 0 0 0.963333 0 0 0 0 0.963333 0 0 0 0 0.963333 0 0 0 0.5 0"/><feBlend in2="shape" result="effect1_innerShadow_3_23"/></filter></defs></svg>