<svg width="123" height="120" fill="none" xmlns="http://www.w3.org/2000/svg"><circle cx="60" cy="60" r="60" fill="#fff"/><g filter="url(#filter0_d_13_3)"><g filter="url(#filter1_i_13_3)"><path d="M23.3 40.886c-2.843 0-4.505-.33-6.93 0-1.742.237-3.18.547-4.505 1.65-1.687 1.402-1.666 2.941-2.426 4.947-.346.915-.89 5.458-1.04 8.247l-.346 14.184c.218 3.278.693 7.587.693 7.587s1.646.97 2.08.66c1.385-.99 1.039-10.556 1.039-11.216 0-.66 1.04-10.225 1.04-10.225s.216-4.507 1.039-7.258c.598-2.001 1.04-4.288 2.079-4.948.45-.286 1.732-.515 1.732 0 0 .66-2.223 4.944-2.772 8.247-.74 4.453 0 11.546 0 11.546l1.04 11.215-.347 12.205v6.598s-1.136 3.816.693 4.948c1.717 1.062 5.099.872 6.93 0 .693-.33-1.465-4.948-1.465-4.948l1.465-5.608 2.346-9.236s2.08-5.938 3.812-4.948l2.505 12.205 4.85 9.236 1.387 3.299s5.057 1.081 6.237-.33c.551-.66-3.465-4.618-3.465-4.618l-1.386-5.608V82.12l1.386-7.587 3.465-1.65s2.543-.163 4.158 0c2.514.254 5.81.66 6.85.66s5.198-.99 6.237 0c1.04.99 1.12 9.566 1.12 9.566l-1.12 9.567s-1.871 5.688-.96 6.267c1.04.66 7.544 1.189 7.544 0V84.429s3.891-12.206 4.93-10.886c1.04 1.32.614 11.545.614 11.545l-.613 7.917s.072 4.417 2.425 5.608c1.793.907 4.851.66 5.544.33 1.386-.66-2.425-5.938-2.425-5.938l.346-10.885 3.119-8.577 4.85-7.587 3.466-3.959s2.183-3.76 4.504-5.278c1.554-1.015 2.693-1.154 4.505-1.649 5.723-1.565 13.86.33 15.246 0 1.386-.33 2.126-.601 2.772-1.65.552-.895.504-1.61.347-2.638-.229-1.487-2.079-3.299-2.079-3.299l-4.159-4.948-3.465-2.639s-6.237-3.629-6.237-4.288c0-.66 3.292-1.32 3.292-1.32l3.292-1.32c1.897-.775 3.396-1.253 3.118-1.649-.693-.99-6.93-1.319-6.93-1.319h-4.158l-2.772.66-3.811 3.958s-2.772-3.299-3.812-3.299 0 5.938 0 5.938.507.341.693.66c.329.563.347 1.232 0 1.65-.346.416-2.324-.045-3.811 0-4.362.13-11.088 1.319-11.088 1.319H23.299z" fill="#000"/></g><path d="M23.3 40.886c-2.843 0-4.505-.33-6.93 0-1.742.237-3.18.547-4.505 1.65-1.687 1.402-1.666 2.941-2.426 4.947-.346.915-.89 5.458-1.04 8.247m14.9-14.844h8.663m-8.663 0h8.663m0 0h44.005s6.727-1.189 11.089-1.32c1.487-.044 3.465.417 3.811 0 .347-.417.329-1.086 0-1.65-.186-.318-.693-.659-.693-.659s-1.04-5.937 0-5.937 3.812 3.298 3.812 3.298l3.811-3.958 2.772-.66h4.158s6.237.33 6.93 1.32c.278.395-1.221.873-3.118 1.649l-3.292 1.32s-3.292.66-3.292 1.319c0 .66 6.237 4.288 6.237 4.288l3.465 2.64 4.159 4.947s1.85 1.812 2.079 3.299c.157 1.028.205 1.743-.347 2.639-.646 1.048-1.386 1.32-2.772 1.65-1.386.33-9.523-1.566-15.246 0-1.812.495-2.95.633-4.505 1.648-2.321 1.518-4.504 5.279-4.504 5.279l-3.465 3.958-4.851 7.587-3.119 8.577-.346 10.885s3.811 5.278 2.425 5.938c-.693.33-3.752.577-5.544-.33-2.353-1.19-2.425-5.608-2.425-5.608l.613-7.917s.426-10.226-.613-11.545c-1.04-1.32-4.931 10.886-4.931 10.886v14.514c0 1.189-6.504.66-7.543 0-.912-.579.96-6.267.96-6.267l1.119-9.567s-.08-8.576-1.12-9.566c-1.04-.99-5.197 0-6.237 0s-4.336-.406-6.85-.66c-1.615-.163-4.158 0-4.158 0l-3.465 1.65-1.386 7.587v6.597l1.386 5.608s4.017 3.958 3.465 4.618c-1.18 1.411-6.237.33-6.237.33l-1.386-3.299-4.851-9.236-2.505-12.205c-1.733-.99-3.812 4.948-3.812 4.948L23.3 88.717l-1.465 5.608s2.158 4.618 1.465 4.948c-1.831.872-5.213 1.062-6.93 0-1.83-1.132-.693-4.948-.693-4.948v-6.598l.347-12.205-1.04-11.215s-.74-7.093 0-11.546c.549-3.303 2.772-7.587 2.772-8.247 0-.515-1.282-.286-1.732 0-1.04.66-1.48 2.947-2.08 4.948-.822 2.751-1.039 7.257-1.039 7.257s-1.04 9.567-1.04 10.226c0 .66.347 10.227-1.039 11.216-.433.31-2.079-.66-2.079-.66s-.475-4.309-.693-7.587m0 0c-.18-2.703.153-6.267.153-6.267s-.017-4 .194-7.917m-.347 14.184L8.4 55.73" stroke="#000" stroke-width="2"/><g filter="url(#filter2_i_13_3)"><path d="M27.767 45.504H23.22v14.844h4.547V55.4h4.548v4.948h4.548V45.504h-4.548v5.567h-4.548v-5.567zm18.192-1.237H40.76L36.863 59.73h3.248l.65-3.093h5.198l1.3 3.093h3.248l-4.548-15.463z" fill="#fff" stroke="#000"/><path d="M44.66 47.36h-1.95l-1.3 6.184h3.9l-.65-6.185z" fill="#000" stroke="#000"/><path d="M69.348 44.267H64.15L60.252 59.73H63.5l.65-3.093h5.198l1.3 3.093h3.248l-4.548-15.463z" fill="#fff" stroke="#000"/><path d="M68.048 47.36H66.1l-1.3 6.184h3.9l-.65-6.185z" fill="#000" stroke="#000"/><path d="M51.156 59.73l.65-15.463h3.898v12.37h6.497v3.093H51.156zm23.389 0l.65-15.463h3.898v12.37h6.497v3.093H74.545z" fill="#fff" stroke="#0D0D0D"/></g></g><defs><filter id="filter0_d_13_3" x="3" y="29" width="120" height="80" filterUnits="userSpaceOnUse" color-interpolation-filters="sRGB"><feFlood flood-opacity="0" result="BackgroundImageFix"/><feColorMatrix in="SourceAlpha" values="0 0 0 0 0 0 0 0 0 0 0 0 0 0 0 0 0 0 127 0" result="hardAlpha"/><feOffset dy="4"/><feGaussianBlur stdDeviation="2"/><feComposite in2="hardAlpha" operator="out"/><feColorMatrix values="0 0 0 0 0 0 0 0 0 0 0 0 0 0 0 0 0 0 0.25 0"/><feBlend in2="BackgroundImageFix" result="effect1_dropShadow_13_3"/><feBlend in="SourceGraphic" in2="effect1_dropShadow_13_3" result="shape"/></filter><filter id="filter1_i_13_3" x="7" y="29" width="112" height="72" filterUnits="userSpaceOnUse" color-interpolation-filters="sRGB"><feFlood flood-opacity="0" result="BackgroundImageFix"/><feBlend in="SourceGraphic" in2="BackgroundImageFix" result="shape"/><feColorMatrix in="SourceAlpha" values="0 0 0 0 0 0 0 0 0 0 0 0 0 0 0 0 0 0 127 0" result="hardAlpha"/><feOffset/><feGaussianBlur stdDeviation="2"/><feComposite in2="hardAlpha" operator="arithmetic" k2="-1" k3="1"/><feColorMatrix values="0 0 0 0 1 0 0 0 0 1 0 0 0 0 1 0 0 0 1 0"/><feBlend in2="shape" result="effect1_innerShadow_13_3"/></filter><filter id="filter2_i_13_3" x="22.72" y="43.767" width="63.371" height="21.081" filterUnits="userSpaceOnUse" color-interpolation-filters="sRGB"><feFlood flood-opacity="0" result="BackgroundImageFix"/><feBlend in="SourceGraphic" in2="BackgroundImageFix" result="shape"/><feColorMatrix in="SourceAlpha" values="0 0 0 0 0 0 0 0 0 0 0 0 0 0 0 0 0 0 127 0" result="hardAlpha"/><feOffset dy="4"/><feGaussianBlur stdDeviation="2"/><feComposite in2="hardAlpha" operator="arithmetic" k2="-1" k3="1"/><feColorMatrix values="0 0 0 0 0.963333 0 0 0 0 0.963333 0 0 0 0 0.963333 0 0 0 0.5 0"/><feBlend in2="shape" result="effect1_innerShadow_13_3"/></filter></defs></svg>